<svg xmlns="http://www.w3.org/2000/svg" width="1280" height="520" viewBox="0 0 1280 520" fill="none">
  <rect width="1280" height="520" rx="28" fill="#FCFCFA"/>
  <rect x="60" y="86" width="240" height="112" rx="20" fill="#F7F8FC" stroke="#D7DDEA"/>
  <rect x="340" y="86" width="260" height="112" rx="20" fill="#F8FAFF" stroke="#D7DDEA"/>
  <rect x="640" y="86" width="280" height="112" rx="20" fill="#FBF8FF" stroke="#D7DDEA"/>
  <rect x="960" y="86" width="260" height="112" rx="20" fill="#F7FBFA" stroke="#D7DDEA"/>

  <text x="84" y="123" fill="#5D6472" font-family="Inter, Arial, sans-serif" font-size="16" font-weight="700">INPUT SIGNALS</text>
  <text x="84" y="160" fill="#191B20" font-family="Inter, Arial, sans-serif" font-size="30" font-weight="700">Speech</text>
  <text x="194" y="160" fill="#191B20" font-family="Inter, Arial, sans-serif" font-size="30" font-weight="700">Vision</text>
  <text x="84" y="190" fill="#191B20" font-family="Inter, Arial, sans-serif" font-size="30" font-weight="700">Text</text>

  <text x="364" y="123" fill="#5D6472" font-family="Inter, Arial, sans-serif" font-size="16" font-weight="700">PERCEPTION</text>
  <text x="364" y="160" fill="#1F4FD1" font-family="Inter, Arial, sans-serif" font-size="30" font-weight="800">Robust AVSR</text>
  <text x="364" y="190" fill="#2C3442" font-family="Inter, Arial, sans-serif" font-size="18" font-weight="500">noise, alignment, weak-signal repair</text>

  <text x="664" y="123" fill="#5D6472" font-family="Inter, Arial, sans-serif" font-size="16" font-weight="700">REASONING</text>
  <text x="664" y="160" fill="#6244B5" font-family="Inter, Arial, sans-serif" font-size="30" font-weight="800">Emotion Understanding</text>
  <text x="664" y="190" fill="#2C3442" font-family="Inter, Arial, sans-serif" font-size="18" font-weight="500">conflict, uncertainty, selective repair</text>

  <text x="984" y="123" fill="#5D6472" font-family="Inter, Arial, sans-serif" font-size="16" font-weight="700">ACTION</text>
  <text x="984" y="160" fill="#2B7A74" font-family="Inter, Arial, sans-serif" font-size="30" font-weight="800">Affective Agents</text>
  <text x="984" y="190" fill="#2C3442" font-family="Inter, Arial, sans-serif" font-size="18" font-weight="500">clarify, intervene, abstain</text>

  <path d="M300 142H340" stroke="#B8C2D9" stroke-width="3" stroke-linecap="round"/>
  <path d="M600 142H640" stroke="#B8C2D9" stroke-width="3" stroke-linecap="round"/>
  <path d="M920 142H960" stroke="#B8C2D9" stroke-width="3" stroke-linecap="round"/>
  <path d="M322 142L306 132V152L322 142Z" fill="#B8C2D9"/>
  <path d="M622 142L606 132V152L622 142Z" fill="#B8C2D9"/>
  <path d="M942 142L926 132V152L942 142Z" fill="#B8C2D9"/>

  <rect x="120" y="286" width="1040" height="156" rx="22" fill="#FFFFFF" stroke="#D7DDEA"/>
  <text x="154" y="330" fill="#1A1D22" font-family="Inter, Arial, sans-serif" font-size="18" font-weight="700">Research thesis</text>
  <text x="154" y="370" fill="#2B3442" font-family="Inter, Arial, sans-serif" font-size="34" font-weight="800">How can multimodal systems stay reliable when evidence is degraded, conflicted, or uncertain?</text>
  <text x="154" y="408" fill="#66707E" font-family="Inter, Arial, sans-serif" font-size="20" font-weight="500">A compact map from perception to reasoning to agentic intervention.</text>
</svg>
